<?xml version="1.0" encoding="UTF-8"?>
<svg id="Capa_1" data-name="Capa 1" xmlns="http://www.w3.org/2000/svg" viewBox="0 0 48 48">
  <defs>
    <style>
      .cls-1 {
        fill: #ea7600;
      }

      .cls-2 {
        fill: #f8f8f8;
      }
    </style>
  </defs>
  <rect class="cls-1" y=".07" width="48" height="48" rx="5" ry="5"/>
  <g>
    <path class="cls-2" d="M9.47,33.12c-.76.63-1.69.9-2.6.73-1.11-.21-1.76-1.19-1.6-2.29.14-.82.6-1.51,1.27-2.03l13.54-10.37h-7.63c-.39,0-.75-.14-1.08-.31-.76-.45-.96-1.34-.5-2.11.54-.89,1.53-1.32,2.59-1.32h14.77s-4.89-4.01-4.89-4.01c-.6-.49-.69-1.23-.19-1.87.75-.77,2.19-1.13,3.14-.4l11.25,8.62c1.19.91,2.27,1.87,3.13,3.09,3.08,4.41,2.69,10.02-.89,14.01-4.16,4.64-11.26,5.68-16.73,2.73-2.28-1.23-4.13-3.08-5.27-5.4-.6-1.23-.97-2.48-1.04-3.85-.02-.41.05-.82.06-1.24l-7.33,6.02ZM35.8,31.05c2.54-2.67,2.51-6.76-.02-9.4-3.26-3.41-9.02-3.34-12.19.13-2.51,2.75-2.39,6.86.26,9.47,1.54,1.52,3.6,2.33,5.8,2.35,2.33.02,4.54-.85,6.15-2.54Z"/>
    <path class="cls-2" d="M33.66,28.95c-2.13,2.34-6.1,2.23-8.06-.29-1.42-1.83-1.15-4.36.58-5.9,2.06-1.83,5.26-1.79,7.26.11,1.74,1.66,1.85,4.3.22,6.08Z"/>
  </g>
</svg>