<?xml version="1.0" encoding="UTF-8"?>
<svg id="Capa_1" data-name="Capa 1" xmlns="http://www.w3.org/2000/svg" viewBox="0 0 48 48">
  <defs>
    <style>
      .cls-1 {
        fill: #253136;
      }

      .cls-2 {
        fill: #fff;
      }
    </style>
  </defs>
  <rect class="cls-1" x="0" y=".07" width="48" height="48" rx="5" ry="5"/>
  <g>
    <path class="cls-2" d="M17.71,23.48c-.44.26-1.88.3-2.32.04-.41-.84-.83-1.66-1.45-1.9-.98-.38-1.76-.16-2.77.23-.52.02-1.7-1.06-1.6-1.63.28-.91.52-1.65.19-2.36-.39-.82-1.12-1.29-1.99-1.7-.54-.26-.53-2.01,0-2.31.76-.43,1.53-.89,1.79-1.58.3-.81.1-1.61-.23-2.5-.21-.57.96-1.81,1.53-1.74.93.3,1.71.54,2.53.17.78-.35,1.17-1.1,1.6-2.11.47-.23,1.82-.24,2.28,0,.43.96.84,1.66,1.51,1.91.97.37,1.67.17,2.71-.33.48.18,1.43,1.07,1.72,1.57-.45,1.04-.64,1.65-.3,2.51s.96,1.28,2.07,1.66c.31.47.35,1.93,0,2.36-.92.39-1.68.9-1.87,1.53-.31,1.08-.17,1.65.42,2.74l-1.6,1.62c-1.05-.4-1.68-.63-2.43-.36-.9.33-1.38.97-1.76,2.17ZM20.85,14.81c0-2.51-2.03-4.54-4.54-4.54s-4.54,2.03-4.54,4.54,2.03,4.54,4.54,4.54,4.54-2.03,4.54-4.54Z"/>
    <path class="cls-2" d="M35.03,30.73c-.37.34-1.78.68-2.26.51-.58-.74-1.15-1.45-1.8-1.56-1.03-.18-1.75.2-2.67.79-.51.12-1.88-.69-1.9-1.27.08-.95.17-1.72-.3-2.35-.55-.73-1.36-1.04-2.3-1.26-.58-.14-.93-1.86-.47-2.26.66-.57,1.32-1.18,1.43-1.91.13-.86-.23-1.6-.73-2.4-.32-.51.57-1.97,1.14-2.01.97.1,1.79.18,2.51-.35.69-.5.92-1.31,1.13-2.39.41-.32,1.74-.6,2.23-.46.62.86,1.16,1.45,1.86,1.56,1.03.16,1.67-.18,2.58-.88.51.08,1.62.76,2,1.18-.22,1.11-.29,1.74.21,2.52s1.2,1.06,2.36,1.2c.4.4.73,1.82.47,2.31-.82.57-1.47,1.22-1.52,1.88-.09,1.12.17,1.65.97,2.6l-1.23,1.91c-1.11-.18-1.78-.28-2.46.14-.82.51-1.15,1.23-1.28,2.48ZM36.34,21.6c-.51-2.46-2.92-4.03-5.37-3.52s-4.03,2.92-3.52,5.37,2.92,4.03,5.37,3.52,4.03-2.92,3.52-5.37Z"/>
    <path class="cls-2" d="M27.83,40.36c-.16.33-.99.92-1.36.94-.57-.33-1.14-.65-1.61-.55-.73.16-1.11.59-1.55,1.23-.3.22-1.43.04-1.59-.34-.2-.65-.34-1.18-.82-1.47-.55-.33-1.17-.32-1.85-.22-.42.06-1.11-.98-.91-1.37.29-.55.56-1.13.44-1.64-.14-.6-.58-.99-1.12-1.39-.35-.25-.15-1.45.22-1.63.67-.19,1.23-.35,1.57-.89.32-.51.26-1.11.12-1.88.19-.32.99-.86,1.35-.9.63.4,1.15.65,1.64.54.72-.16,1.06-.56,1.47-1.26.36-.08,1.27.07,1.64.25.15.79.27,1.23.81,1.6s1.07.38,1.88.17c.37.16.97,1.01.93,1.4-.39.59-.64,1.19-.5,1.64.24.76.55,1.05,1.33,1.46l-.31,1.59c-.78.18-1.25.29-1.58.75-.41.55-.44,1.12-.19,1.98ZM26.28,33.99c-.99-1.49-2.99-1.89-4.48-.9s-1.89,2.99-.9,4.48,2.99,1.89,4.48.9,1.89-2.99.9-4.48Z"/>
  </g>
</svg>