<?xml version="1.0" encoding="UTF-8"?>
<svg id="Capa_1" data-name="Capa 1" xmlns="http://www.w3.org/2000/svg" viewBox="0 0 48 48">
  <defs>
    <style>
      .cls-1 {
        fill: #f83169;
      }

      .cls-2 {
        fill: #540118;
      }
    </style>
  </defs>
  <rect class="cls-2" x="0" y=".07" width="48" height="48" rx="5" ry="5"/>
  <g>
    <path class="cls-1" d="M17.56,38.84h-7.33V11.7h7.33v27.14Z"/>
    <path class="cls-1" d="M30.85,38.84c.01-.2.02-.43.04-.69s.03-.56.05-.9c.02-.21.04-.53.05-.97-.68,1.1-1.34,1.87-1.99,2.3-.63.42-1.41.63-2.34.63-1.91,0-3.41-.86-4.5-2.57-1.08-1.71-1.62-4.09-1.62-7.14,0-3.2.53-5.68,1.58-7.44,1.05-1.77,2.54-2.65,4.46-2.65,1.05,0,1.9.23,2.55.7.68.47,1.34,1.28,1.97,2.44-.04-.61-.05-.98-.05-1.11l-.07-1.92v-10.41h7.07v29.69h-7.21ZM27.84,29.26c0,2.6.58,3.9,1.74,3.9,1.09,0,1.63-1.34,1.63-4.03s-.53-3.85-1.58-3.85c-1.2,0-1.79,1.32-1.79,3.97Z"/>
  </g>
</svg>