<?xml version="1.0" encoding="UTF-8"?>
<svg id="Capa_1" data-name="Capa 1" xmlns="http://www.w3.org/2000/svg" viewBox="0 0 48 48">
  <defs>
    <style>
      .cls-1 {
        fill: #fff;
      }

      .cls-2 {
        fill: #c1272d;
      }
    </style>
  </defs>
  <rect class="cls-2" y="0" width="48" height="48" rx="5" ry="5"/>
  <g>
    <path class="cls-1" d="M11.69,31.42h-4.4v-13.57h4.26c2.12,0,3.7.36,4.72,1.08,1.21.85,1.81,2.03,1.81,3.54,0,1.65-.64,2.87-1.93,3.68-.88.54-2.14.82-3.79.82h-.69v4.45ZM11.69,23.93h.2c.53,0,.96-.13,1.28-.4s.47-.65.47-1.12-.15-.85-.46-1.14c-.31-.3-.7-.45-1.18-.45h-.31v3.11Z"/>
    <path class="cls-1" d="M20,31.42v-13.57h3.8c2.17,0,3.86.49,5.07,1.46,1.59,1.27,2.38,3.05,2.38,5.33s-.67,3.99-2.01,5.21c-1.15,1.04-2.85,1.56-5.13,1.56h-4.11ZM24.4,28.14c1.57-.06,2.36-1.2,2.36-3.39,0-1.08-.2-1.94-.6-2.57-.4-.63-.94-.95-1.62-.95h-.14v6.91Z"/>
    <path class="cls-1" d="M37.9,31.42h-4.4v-13.57h7.77v3.19h-3.38v1.98h3.14v3.07h-3.14v5.33Z"/>
  </g>
</svg>