<?xml version="1.0" encoding="UTF-8"?>
<svg id="Capa_1" data-name="Capa 1" xmlns="http://www.w3.org/2000/svg" viewBox="0 0 48 48">
  <defs>
    <style>
      .cls-1 {
        fill: #021f37;
      }

      .cls-2 {
        fill: #31a8ff;
      }
    </style>
  </defs>
  <rect class="cls-1" y=".07" width="48" height="48" rx="5" ry="5"/>
  <g>
    <path class="cls-2" d="M14.91,38.84h-7.33V11.7h7.1c3.54,0,6.16.72,7.88,2.16,2.02,1.7,3.02,4.06,3.02,7.08,0,3.29-1.07,5.75-3.22,7.36-1.46,1.09-3.57,1.63-6.31,1.63h-1.14v8.89ZM14.91,23.85l.33.02c.89,0,1.6-.27,2.13-.82s.79-1.29.79-2.24-.26-1.7-.77-2.29c-.52-.6-1.17-.9-1.97-.9h-.51v6.22Z"/>
    <path class="cls-2" d="M27.2,37.28l2.57-5.27c1.27,1.32,2.44,1.99,3.53,1.99.91,0,1.37-.33,1.37-.98,0-.56-.62-1.07-1.85-1.51-3.32-1.17-4.97-3.03-4.97-5.57,0-1.86.74-3.41,2.21-4.64,1.49-1.23,3.35-1.85,5.57-1.85,1.83,0,3.71.52,5.66,1.55l-2.41,5.15c-1.18-1.11-2.15-1.67-2.9-1.67s-1.11.3-1.11.9c0,.64.7,1.25,2.11,1.81,1.76.69,2.95,1.42,3.59,2.2.67.77,1,1.84,1,3.2,0,1.96-.71,3.56-2.13,4.8s-3.24,1.86-5.47,1.86c-1.07,0-2.13-.13-3.18-.4-.49-.13-1.03-.33-1.62-.59s-1.25-.58-1.99-.96Z"/>
  </g>
</svg>