<?xml version="1.0" encoding="UTF-8"?>
<svg id="Capa_1" data-name="Capa 1" xmlns="http://www.w3.org/2000/svg" viewBox="0 0 48 48">
  <defs>
    <style>
      .cls-1 {
        fill: #cf512f;
      }

      .cls-2 {
        fill: #fff;
      }
    </style>
  </defs>
  <rect class="cls-1" y=".07" width="48" height="48" rx="5" ry="5"/>
  <path class="cls-2" d="M22.95,38.84h-7.33V11.7h7.1c3.54,0,6.16.72,7.88,2.16,2.02,1.7,3.02,4.06,3.02,7.08,0,3.29-1.07,5.75-3.22,7.36-1.46,1.09-3.57,1.63-6.31,1.63h-1.14v8.89ZM22.95,23.85l.33.02c.89,0,1.6-.27,2.13-.82s.79-1.29.79-2.24-.26-1.7-.77-2.29c-.52-.6-1.17-.9-1.97-.9h-.51v6.22Z"/>
</svg>