<?xml version="1.0" encoding="UTF-8"?>
<svg id="Capa_1" data-name="Capa 1" xmlns="http://www.w3.org/2000/svg" viewBox="0 0 48 48">
  <defs>
    <style>
      .cls-1 {
        fill: #253136;
      }

      .cls-2 {
        fill: #fff;
      }
    </style>
  </defs>
  <rect class="cls-1" x="0" y=".07" width="48" height="48" rx="5" ry="5"/>
  <g>
    <path class="cls-2" d="M16.83,25.07c1.41,2.09,2.15,4.41,2.04,6.88,0,.16-.14.4-.25.44s-.36-.1-.43-.23c-1.43-2.55-3.09-4.88-5.61-6.47s-5.37-1.88-8.14-1c-.36.12-.74-.35-.78-.67-.19-1.41.35-2.87.82-4.23.37-.22.76-.33,1.19-.33,1.49,0,2.92.31,4.41.76.88-3.04,1.3-6.7-.93-9.19-.15-.17-.18-.64.07-.72,1.62-.53,3.2-.99,4.84-1.42,1.19-.31,2.29-.48,2.69.62,1.49,4.03-.96,8.88-3.34,12.27.4.66,1.01,1.05,1.75,1.27,3.21-3.07,4.64-7.6,4.78-12.01,0-.16.05-.37.15-.43s.36-.03.5,0c1.24.8,2.22,1.81,3.1,3,1.13,1.53,1.92,3.25,2.17,5.13.14,1.05-.35,1.82-1.17,2.39-2.15,1.49-4.43,2.66-6.92,3.47-.32.1-.55.22-.95.47Z"/>
    <path class="cls-2" d="M29.36,36.57l1.41,1.47c.33.34.39,1-.07,1.25-.25.14-.69-.05-.91-.27-2.72-2.83-5.76-4.57-9.14-6.47-.42-.23-.84-.53-.94-1.01s.17-.93.26-1.4c.2-.98.05-1.96,0-3.01,1.04.04,1.01,1.53.8,2.65-.34,1.79,1.48,2.3,3.09,2.82.59.19,1.19.04,1.49-.55.65-1.27.52-2.61,2.42-3.14.36-.1.77-.23,1.13-.22l.89.03c-.51-.65-2.15-.57-2.85-.27-.58.25-1.08.38-1.78.47.33.32.37.57.24.88-.11.26-.57.55-.88.34l-2.59-1.71c-.21-.14-.2-.44-.05-.61l.78-.87-2.26-.17c-.29-.02-.64-.18-.81-.39-.2-.25-.22-.66-.11-.97.32-.95,1.11-1.42,2.01-1.74,1.27-.44,2.43-1.13,3.5-1.93l1.21-.91c.1-.08.4-.1.51-.07.42.12.78,1.37.98,2.15.55,2.06,2.65,3.3,4.33,2.58l1.8-.76c.15-.06.51-.02.65.05.05.29-.04.62-.19.86-.57.92-1.28,1.7-1.97,2.55-.21.26.22.67.5.73,1.43.31,2.88-.5,4.17-1.29,2.11-1.3,4.11-2.7,6.02-4.29l.92-.76c.05-.04.22-.07.28-.05.38.12,0,1.53-.55,2.34-1.82,2.68-4.84,5.26-7.26,7.47l-1.25,1.14c-.88.81-.63,2.16-1.53,3.57-.41.65-.88,1.15-1.62,1.44-.62-.46-1.42-1.22-1.19-1.62.07-.12.34-.28.5-.28.7-.03,1.11.68.99,1.34.41-.52.67-1.29.4-1.96-.18-.46-.66-.86-1.08-1.09-.48-.26-1.04-.15-1.35.25-.33.42-.39.95-.21,1.48l-.84-.62c-.04.19,0,.43.12.55ZM22.88,28.12c-.02.11.1.33.19.39l1.09.79c.11.08.46-.02.49-.14.17-.66-1.67-1.72-1.78-1.04Z"/>
  </g>
</svg>