<?xml version="1.0" encoding="UTF-8"?>
<svg id="Capa_1" data-name="Capa 1" xmlns="http://www.w3.org/2000/svg" viewBox="0 0 48 48">
  <defs>
    <style>
      .cls-1 {
        fill: #fff;
      }

      .cls-2 {
        fill: #c1272d;
      }
    </style>
  </defs>
  <rect class="cls-2" x="0" y=".07" width="48" height="48" rx="5" ry="5"/>
  <g>
    <polygon class="cls-1" points="6.15 20.39 6.15 20.28 7.88 19.35 16.16 21.58 10.09 25.11 17.1 25.14 12.56 29.7 9.09 29.69 9.08 25.35 6.15 20.39"/>
    <polygon class="cls-1" points="34.5 3.96 34.56 3.96 37.57 9.23 35.88 10.2 27.57 7.97 34.5 3.96"/>
    <rect class="cls-1" x="9.09" y="32.34" width="32.76" height="11.71"/>
    <polygon class="cls-1" points="27.67 14.96 19.34 12.73 24.33 9.84 32.64 12.07 27.67 14.96"/>
    <polygon class="cls-1" points="19.42 19.71 11.12 17.48 16.1 14.6 24.41 16.82 19.42 19.71"/>
    <polygon class="cls-1" points="22.08 29.69 16.31 29.7 20.86 25.13 26.63 25.13 22.08 29.69"/>
    <polygon class="cls-1" points="31.58 29.69 25.81 29.69 30.36 25.13 36.12 25.14 31.58 29.69"/>
    <polygon class="cls-1" points="41.84 29.7 35.32 29.7 39.87 25.14 41.84 25.13 41.84 29.7"/>
  </g>
</svg>