<?xml version="1.0" encoding="UTF-8"?>
<svg id="Capa_1" data-name="Capa 1" xmlns="http://www.w3.org/2000/svg" viewBox="0 0 48 48">
  <defs>
    <style>
      .cls-1 {
        fill: #0f57be;
      }

      .cls-2 {
        fill: #fff;
      }
    </style>
  </defs>
  <rect class="cls-1" y=".07" width="48" height="48" rx="5" ry="5"/>
  <path class="cls-2" d="M33.84,38.84h-7.07l-1.69-9.51c-.33-1.84-.57-3.43-.74-4.78-.08-.67-.15-1.22-.21-1.67s-.1-.79-.12-1.02c-.06.48-.15,1.38-.26,2.69-.06.67-.13,1.37-.21,2.11s-.18,1.52-.3,2.34l-1.39,9.84h-7.14l-6.05-27.14h7.24l1.2,7.47c.46,2.98.77,5.31.95,7.01l.25,2.48.23-2.13c.25-2.48.56-4.85.95-7.08l1.37-7.75h6.31l1.23,6.52c.59,3.04,1.1,6.63,1.53,10.77.13-1.86.27-3.52.42-4.96.15-1.44.32-2.75.51-3.92l1.34-8.42h7.15l-5.5,27.14Z"/>
</svg>