<?xml version="1.0" encoding="UTF-8"?>
<svg id="Capa_1" data-name="Capa 1" xmlns="http://www.w3.org/2000/svg" viewBox="0 0 48 48">
  <defs>
    <style>
      .cls-1 {
        fill: #f8f8f8;
      }

      .cls-2 {
        fill: #e21010;
      }
    </style>
  </defs>
  <rect class="cls-2" x="0" y=".07" width="48" height="48" rx="5" ry="5"/>
  <path class="cls-1" d="M34.61,38.92h-7.58l-.54-3.45h-4.94l-.6,3.45h-7.58l6.52-27.14h8.96l5.75,27.14ZM25.63,29.65l-.47-3.16s-.04-.17-.07-.47c-.02-.26-.15-1.28-.37-3.06-.02-.2-.05-.47-.09-.82s-.08-.78-.14-1.31l-.23-2.57c-.02.25-.06.52-.1.83s-.08.64-.13,1c-.08.73-.14,1.23-.18,1.51s-.06.45-.07.51l-.51,3.29-.74,4.25h3.09Z"/>
</svg>