<?xml version="1.0" encoding="UTF-8"?>
<svg id="Capa_1" data-name="Capa 1" xmlns="http://www.w3.org/2000/svg" viewBox="0 0 48 48">
  <defs>
    <style>
      .cls-1 {
        fill: #f8f8f8;
      }

      .cls-2 {
        fill: #c1272d;
      }
    </style>
  </defs>
  <rect class="cls-2" x="0" y=".07" width="48" height="48" rx="5" ry="5"/>
  <g>
    <path class="cls-1" d="M28.48,44.53h-9.34v-.29l3.18-7.27c.23-.44.42-.8.57-1.08.14-.28.25-.48.31-.6.11-.23.34-.61.69-1.14h-3.94v-3.19h8.99v.38l-3.34,7.39c-.22.47-.43.93-.65,1.38s-.43.89-.65,1.33c.39-.03.69-.05.91-.07.22-.01.36-.02.43-.02l2.84-.08v3.26Z"/>
    <path class="cls-1" d="M33.89,44.53h-3.67v-13.57h3.67v13.57Z"/>
    <path class="cls-1" d="M39.45,44.53h-3.67v-13.57h3.55c1.77,0,3.08.36,3.94,1.08,1.01.85,1.51,2.03,1.51,3.54,0,1.65-.54,2.87-1.61,3.68-.73.54-1.78.82-3.16.82h-.57v4.45ZM39.45,37.04h.17c.45,0,.8-.13,1.06-.4s.4-.65.4-1.12-.13-.85-.39-1.14c-.26-.3-.59-.45-.98-.45h-.25v3.11Z"/>
  </g>
  <g>
    <path class="cls-1" d="M14.9,5.9h1.89c.3,0,.62-.25.62-.58v-1.49c0-.36-.28-.66-.63-.65h-1.87c-.96,0-.56-1.12-.7-2.28h-4.34v1.83c0,.23.36.5.58.5h1.95c.33,0,.62.26.62.6v1.31c0,.36-.3.62-.65.62h-1.86c-.33,0-.65.23-.65.58v1.52c0,.29.27.61.58.61h1.96c.32,0,.62.27.62.6v1.4c0,.29-.27.6-.56.6h-2.04c-.28.01-.56.32-.56.59v1.53c0,.3.28.61.6.61h3.21c.31,0,.58-.32.58-.61v-1.39c0-.33.26-.64.58-.64h1.96c.31,0,.63-.26.63-.59v-1.5c0-.35-.3-.63-.64-.63h-1.97c-.27,0-.55-.31-.55-.57v-1.33c0-.37.29-.64.65-.64Z"/>
    <path class="cls-1" d="M15.06,26.02h-2.78c-.34,0-.65-.24-.65-.59v-3.29c0-.17-.09-.43-.19-.52-.33-.3-1.57.02-1.57-.61l-.02-5.12c0-.29.27-.59.57-.59h6.35c.34,0,.64.26.64.6v4.86c0,.18-.1.48-.22.56-.37.26-1.52-.03-1.53.57l-.03,3.53c0,.28-.24.6-.57.6Z"/>
  </g>
</svg>