<?xml version="1.0" encoding="UTF-8"?>
<svg id="Capa_1" data-name="Capa 1" xmlns="http://www.w3.org/2000/svg" viewBox="0 0 48 48">
  <defs>
    <style>
      .cls-1 {
        fill: #fff;
      }

      .cls-2 {
        fill: #54903f;
      }
    </style>
  </defs>
  <rect class="cls-2" y=".07" width="48" height="48" rx="5" ry="5"/>
  <path class="cls-1" d="M14.85,42.42c.23-.3.37-.57.45-.92.09-.45.44-.58.73-1.1,1.28-2.26,2.44-4.55,3.58-6.89l1.31-2.7c.23-.47.56-.81,1.08-.94.62-.15,1.14-.5,1.6-.94l1.65-1.61,2.27-2.23c.83-.82,1.78-1.01,2.19-1.56.1-.14.06-.42.08-.6l-.38.07c-1.37,1.13-3.01,1.9-4.33,3.06-.9.79-1.75.86-2.91.94l-1.3.08c-.07,0-.2-.02-.23-.07s-.04-.18-.03-.24c.06-.66.4-1.15.96-1.46.37-.2.6-.61.62-1.02.02-.32.1-.64.32-.89.5-.57.85-1.19,1.25-1.84s.96-1.12,1.49-1.61c.12-.11.18-.18.27-.33-.17-.07-.29-.08-.46-.06-.87.11-1.7.14-2.58.16l-3.57.09-3.62.05c-.25,0-.48.08-.68.23l-5.46,4.37c-.15.12-.35.27-.54.27-.97.02-1.9,0-2.86-.07-.11,0-.25-.14-.26-.23,0-.1.15-.27.26-.26l1.25.08c.41.03.79-.05,1.15-.25,1.49-.82,2.91-1.69,4.25-2.75.58-.46,1.1-.97,1.48-1.59.28-.47.7-.65,1.24-.66l2.49-.03c1.52-.02,2.99-.13,4.46-.48.77-.19,1.53-.26,2.32-.26h2.25c.22,0,.44-.13.58-.3l1.92-2.17.66-.77c.48-.55,1.08-.93,1.76-1.18.34-.13.43-.49.27-.79-.23-.43-.44-.85-.59-1.33-.03-.11.09-.38.19-.42.18-.08.41.05.53.2l.38.49s.14.05.17.04c.14-.02.02-.43-.19-.71-.09-.13-.15-.22-.15-.38,0-.11.1-.29.24-.32s.32.01.42.08c.28.21,0,.79.09,1.38l.24.17c.11-.16.18-.33.2-.52.1-.75,1.28-.18,1.52-.33.04-.02.07-.13.07-.18l-.02-2.24-.41-5.25c-.03-.38-.54-.93-.24-1.21.08-.07.35-.08.42,0,.21.33.3.69.33,1.07l.21,2.59.15,4.85.05.57s.07.14.11.15.16-.01.2-.04l.46-.43c1.57-1.73,3.17-2.72,5.34-3.57l.84-.26c.08.08.13.22.14.31,0,.09-.06.26-.19.3-1.93.64-3.67,1.65-5.25,2.94l-1.09.89c-.4.33,1.57,2.04.16,2.88l-.75.45c-.27.16-.37.43-.3.73.12.44.46.7.91.74l1.72.15c.31.03.63,0,.93-.05.58-.12,1.15-.16,1.75-.1.45.04.37-.5.58-.47.38.05.92.49.84.78-.03.1-.22.22-.34.19-.39-.1-.74-.08-1.06.17l-.55.43c-.36.28-.8.37-1.25.29l-1.02-.28-1.58-.47c-.73-.22-2.07-.15-2.15.69-.03.34,0,.68.04,1.02l.21,2.1v3.34c0,.26.07.49.27.68l1.99,1.92c.44.42.75.91,1.1,1.41.27.39.63.7.98,1.02.38.35.72.89.45,1.16-.08.07-.3.12-.38.03l-.36-.35c-.4-.4-.72-.81-1.05-1.28-.68-.99-1.5-1.83-2.4-2.63-.48-.42-.91-.84-1.27-1.36-.55-.82-.61-1.78-.27-2.7.18-.48.21-1.05.09-1.55-.07-.23-.49-.34-.69-.26-.14.06-.23.22-.29.34l-.83,1.57-1.63,2.38c-.24.36-.59.59-.94.85l-5.53,4c-.27.2-.44.44-.49.76-.07.38-.35.65-.72.76-.39.11-.73.34-.94.71-1.15,2-2.21,4.01-3.21,6.1l-1.35,2.8-.34,1.04c-.19.04-.4.09-.51.26l-1.3,1.95-.81,1.15c-.09.12-.27.23-.41.25s-.29-.05-.36-.16c-.05-.09-.04-.27.04-.38l1.9-2.53Z"/>
</svg>