<?xml version="1.0" encoding="UTF-8"?>
<svg id="Capa_1" data-name="Capa 1" xmlns="http://www.w3.org/2000/svg" viewBox="0 0 48 48">
  <defs>
    <style>
      .cls-1 {
        fill: #fff;
      }

      .cls-2 {
        fill: #125c99;
      }
    </style>
  </defs>
  <rect class="cls-2" y=".07" width="48" height="48" rx="5" ry="5"/>
  <path class="cls-1" d="M28.83,7.89l10.09,7.82-.07,1.04-2.07,17.48-20.79,5.88-4.03-12.53-2.89-17.14,19.33-2.5.42-.06ZM29.21,17.55l7.29-1.3-8.22-6.41-17.03,2.2,1.14,2.71,12.36-1.8,4.46,4.6ZM20.67,21.79l1.66,2.81,6.82-1.46-4.23-5.23-11.71,2.05,1.18,3.05,6.28-1.22ZM22.71,30.36l-1.57-3.05-5.9,1.35,1.14,3.26,6.33-1.56Z"/>
</svg>