<?xml version="1.0" encoding="UTF-8"?>
<svg id="Capa_1" data-name="Capa 1" xmlns="http://www.w3.org/2000/svg" viewBox="0 0 48 48">
  <defs>
    <style>
      .cls-1 {
        fill: #99f;
      }

      .cls-2 {
        fill: #00045b;
      }
    </style>
  </defs>
  <rect class="cls-2" y=".07" width="48" height="48" rx="5" ry="5"/>
  <g>
    <path class="cls-1" d="M15.94,38.84h-7.33V11.7h7.1c3.54,0,6.16.72,7.88,2.16,2.02,1.7,3.02,4.06,3.02,7.08,0,3.29-1.07,5.75-3.22,7.37-1.46,1.09-3.57,1.63-6.31,1.63h-1.14v8.89ZM15.94,23.85l.33.02c.89,0,1.6-.27,2.13-.82s.79-1.29.79-2.24-.26-1.7-.77-2.29c-.52-.6-1.17-.9-1.97-.9h-.51v6.22Z"/>
    <path class="cls-1" d="M35.96,38.84h-7.05v-19h7.05l-.37,3.71c1.07-2.78,2.83-4.17,5.29-4.17v7.91c-.77-.42-1.43-.63-1.97-.63-.95,0-1.68.34-2.19,1.03s-.76,1.68-.76,3v8.16Z"/>
  </g>
</svg>