<?xml version="1.0" encoding="UTF-8"?>
<svg id="Capa_1" data-name="Capa 1" xmlns="http://www.w3.org/2000/svg" viewBox="0 0 48 48">
  <defs>
    <style>
      .cls-1 {
        fill: #1768f8;
      }

      .cls-2 {
        fill: #f8f8f8;
      }
    </style>
  </defs>
  <rect class="cls-1" x="0" y=".07" width="48" height="48" rx="5" ry="5"/>
  <path class="cls-2" d="M34.34,38.84h-7.93l-3.62-9.67c-.04-.16-.1-.38-.18-.65s-.2-.59-.33-.97l.05,1.79v9.49h-7.29V11.7h7.51c3.3,0,5.78.65,7.42,1.95,2.09,1.66,3.13,4.03,3.13,7.1,0,3.28-1.4,5.55-4.2,6.8l5.45,11.29ZM22.37,24.27h.49c.84,0,1.55-.32,2.11-.97s.84-1.46.84-2.46c0-2.03-1.06-3.04-3.18-3.04h-.26v6.47Z"/>
</svg>